<svg xmlns="http://www.w3.org/2000/svg" viewBox="0 0 24 24" width="24" height="24" color="#000000" fill="none">
    <defs />
    <path fill="currentColor" d="M20.75,19.001 C20.75,20.519 19.519,21.751 18,21.751 L6,21.751 C4.481,21.751 3.25,20.519 3.25,19.001 L3.25,10.751 L2,10.751 C1.682,10.751 1.398,10.549 1.292,10.249 C1.187,9.948 1.283,9.614 1.532,9.415 L10.907,1.915 C11.546,1.403 12.454,1.403 13.093,1.915 L22.469,9.415 C22.717,9.614 22.813,9.948 22.708,10.249 C22.602,10.549 22.319,10.751 22,10.751 L20.75,10.751 Z M13,17 C13,16.448 12.552,16 12,16 C11.448,16 11,16.448 11,17 L11,18 C11,18.552 11.448,19 12,19 C12.552,19 13,18.552 13,18 Z" />
</svg>